<?xml version="1.0" standalone="no"?>
<!DOCTYPE svg PUBLIC "-//W3C//DTD SVG 20010904//EN"
 "http://www.w3.org/TR/2001/REC-SVG-20010904/DTD/svg10.dtd">
<svg version="1.0" xmlns="http://www.w3.org/2000/svg"
 width="500.000000pt" height="500.000000pt" viewBox="0 0 500.000000 500.000000"
 preserveAspectRatio="xMidYMid meet">

<g transform="translate(0.000000,500.000000) scale(0.100000,-0.100000)"
fill="#000000" stroke="none">
<path d="M0 2500 l0 -2500 2500 0 2500 0 0 2500 0 2500 -2500 0 -2500 0 0
-2500z m1011 654 c10 -12 10 -20 1 -35 -7 -11 -12 -57 -12 -110 l0 -92 20 26
c18 22 19 29 8 47 -11 17 -11 22 2 30 45 29 45 -49 0 -95 l-30 -31 55 -48 c50
-43 55 -51 55 -88 0 -40 21 -78 43 -78 7 0 8 39 3 113 -4 61 -8 126 -9 142 -2
24 2 30 18 30 19 0 20 -6 16 -145 l-3 -145 21 19 c15 14 21 31 21 62 0 39 4
46 55 90 l56 47 -25 26 c-45 47 -57 111 -21 111 21 0 30 -27 15 -45 -10 -12
-8 -20 10 -42 l22 -28 -4 113 c-5 113 1 134 27 112 11 -9 12 -17 5 -30 -6 -10
-10 -65 -10 -122 l0 -103 -55 -48 c-49 -43 -55 -52 -55 -88 0 -33 -6 -45 -35
-70 -22 -20 -36 -41 -36 -58 l-2 -26 -4 26 c-2 14 -20 41 -39 60 -27 26 -34
41 -34 70 0 32 -7 44 -55 87 l-55 51 0 110 c0 62 -4 112 -10 116 -14 9 -12 42
3 48 20 9 24 8 38 -9z m-277 -70 c9 -3 16 -16 16 -28 0 -13 22 -43 55 -76 52
-51 55 -57 55 -103 0 -44 4 -54 36 -83 32 -31 35 -38 29 -72 -5 -33 -2 -41 25
-67 39 -37 38 -45 -6 -45 -26 0 -46 8 -70 30 -32 28 -38 29 -92 24 -56 -6 -58
-5 -93 33 -30 31 -38 47 -41 91 -4 41 -12 60 -33 82 -16 17 -34 30 -41 30 -18
0 -26 30 -9 37 10 3 30 -11 55 -38 34 -39 39 -50 40 -94 0 -43 5 -55 35 -87
30 -34 40 -38 81 -38 40 0 45 2 34 15 -7 8 -18 15 -25 15 -18 0 -26 25 -13 38
8 8 30 -9 75 -58 48 -52 72 -70 91 -70 l26 0 -27 28 c-20 21 -27 38 -27 68 0
58 -39 94 -102 94 -26 0 -50 5 -54 11 -3 6 -22 17 -40 25 -23 9 -34 21 -34 34
0 25 38 27 47 3 13 -37 36 -53 75 -53 l38 0 0 43 c0 38 -5 48 -53 95 -30 29
-58 52 -63 51 -34 -6 -55 30 -34 56 14 17 21 18 44 9z m904 -6 c7 -7 12 -20
12 -30 0 -18 -33 -42 -44 -31 -4 4 -31 -18 -61 -47 -50 -49 -55 -59 -55 -97
l0 -43 38 0 c39 0 62 16 75 53 9 24 47 22 47 -3 0 -13 -11 -25 -34 -34 -18 -8
-37 -19 -40 -25 -4 -6 -28 -11 -54 -11 -63 0 -102 -36 -102 -94 0 -30 -7 -47
-27 -68 l-27 -28 31 0 c25 0 40 11 88 70 44 52 62 67 71 59 15 -12 7 -39 -11
-39 -7 0 -18 -7 -25 -15 -11 -13 -6 -15 36 -15 41 0 53 5 81 32 30 29 33 38
33 89 0 50 3 59 25 73 14 10 30 28 35 42 6 16 16 24 27 22 26 -5 27 -27 1 -37
-43 -17 -68 -54 -75 -112 -4 -44 -12 -61 -42 -92 -35 -38 -37 -39 -93 -33 -54
5 -60 4 -92 -24 -24 -22 -44 -30 -70 -30 -44 0 -45 8 -5 46 27 26 30 34 25 69
-6 37 -4 42 29 68 32 25 35 33 35 78 0 48 3 54 55 108 30 32 55 67 55 79 0 29
36 42 58 20z m-731 -64 c3 -8 1 -20 -6 -27 -20 -20 -12 -36 60 -112 40 -42 69
-79 65 -83 -10 -9 -155 148 -156 169 0 8 -5 20 -11 26 -17 17 -3 43 21 43 11
0 23 -7 27 -16z m570 0 c3 -8 1 -20 -6 -27 -6 -6 -11 -18 -11 -26 -1 -20 -146
-178 -155 -169 -4 4 25 41 64 82 71 75 80 93 60 113 -17 17 -3 43 21 43 11 0
23 -7 27 -16z m-451 -304 c4 -16 13 -35 20 -41 16 -13 19 -59 5 -59 -5 0 -11
12 -13 27 -2 17 -12 32 -26 39 -13 6 -28 16 -34 22 -16 16 -2 42 22 42 15 0
22 -8 26 -30z m329 6 c0 -11 -13 -26 -30 -36 -20 -11 -31 -26 -33 -43 -2 -15
-8 -25 -13 -22 -15 10 -10 41 11 60 11 10 17 21 15 25 -3 5 -2 16 1 25 9 23
49 15 49 -9z m590 -126 c0 -25 0 -25 -107 -28 l-108 -3 0 31 0 31 108 -3 c107
-3 107 -3 107 -28z m225 -5 l0 -35 -50 0 -50 0 0 -40 0 -40 75 0 75 0 0 -30 0
-30 -75 0 -75 0 0 -40 0 -40 50 0 50 0 0 -35 0 -35 -85 0 -85 0 0 180 0 180
85 0 85 0 0 -35z m378 -37 l-3 -73 -32 -3 c-32 -3 -33 -2 -33 37 0 39 -2 41
-30 41 -88 0 -137 -88 -95 -169 18 -37 35 -43 120 -50 70 -6 70 -6 70 -36 l0
-30 -75 0 c-60 1 -83 6 -117 25 -90 50 -112 189 -44 270 34 40 89 59 174 60
l68 0 -3 -72z m122 -8 l0 -80 -35 0 -35 0 0 80 0 80 35 0 35 0 0 -80z m205
-100 l0 -175 -35 0 c-32 0 -35 3 -38 33 l-3 32 -65 0 -64 0 0 -35 c0 -33 -2
-35 -35 -35 l-35 0 0 70 0 70 100 0 100 0 0 103 c0 57 3 107 7 111 4 4 21 6
38 4 l30 -3 0 -175z m264 156 c48 -43 43 -132 -8 -168 -21 -15 -21 -15 14 -87
19 -40 35 -75 35 -77 0 -2 -17 -4 -37 -4 -37 0 -39 2 -70 70 -24 54 -36 70
-52 70 -19 0 -21 -6 -21 -70 l0 -70 -35 0 -35 0 0 105 0 105 69 0 c83 0 122
22 102 58 -10 18 -21 22 -89 24 l-77 3 -3 33 -3 34 94 -4 c76 -2 99 -7 116
-22z m211 -126 c0 -143 1 -150 20 -150 16 0 20 -7 20 -30 l0 -31 -77 3 c-76 3
-78 4 -81 30 -3 21 1 27 20 30 23 3 23 5 26 151 l3 147 34 0 35 0 0 -150z
m260 135 c33 -17 50 -43 50 -74 0 -29 -55 -30 -70 0 -9 15 -19 19 -43 17 -27
-2 -33 -8 -35 -30 -3 -29 11 -40 71 -53 46 -10 77 -48 77 -95 0 -52 -13 -76
-50 -95 -47 -24 -60 -20 -60 20 0 24 5 35 15 35 8 0 19 8 24 18 15 28 -13 62
-51 62 -45 0 -98 56 -98 105 0 29 8 45 34 71 39 39 86 45 136 19z m278 -17
c-3 -32 -5 -33 -50 -36 l-48 -3 0 -40 0 -39 70 0 70 0 0 -30 0 -30 -70 0 -70
0 0 -40 0 -40 50 0 50 0 0 -35 0 -35 -85 0 -85 0 0 180 0 180 86 0 85 0 -3
-32z m-2018 -213 l0 -115 -35 0 -35 0 0 115 0 115 35 0 35 0 0 -115z m180
-195 c12 -8 9 -10 -12 -10 -35 0 -37 -23 -2 -38 18 -9 24 -19 22 -35 -3 -24
-43 -36 -61 -18 -7 7 -2 10 18 8 36 -3 44 20 11 33 -35 13 -44 39 -21 56 22
16 25 17 45 4z m214 -6 c19 -18 21 -75 4 -92 -7 -7 -21 -12 -33 -12 -30 0 -45
19 -45 56 0 34 21 64 45 64 7 0 21 -7 29 -16z m736 6 c12 -8 9 -10 -12 -10
-35 0 -37 -23 -2 -38 18 -9 24 -19 22 -35 -3 -24 -43 -36 -61 -18 -7 7 -2 10
18 8 36 -3 44 20 11 33 -35 13 -44 39 -21 56 22 16 25 17 45 4z m-1190 -47
l12 -48 16 50 c8 28 17 43 19 35 5 -20 -21 -93 -34 -97 -5 -2 -15 15 -22 38
-7 22 -15 47 -18 55 -3 8 -1 14 5 14 5 0 15 -21 22 -47z m120 -8 c0 -30 -4
-55 -10 -55 -5 0 -10 25 -10 55 0 30 5 55 10 55 6 0 10 -25 10 -55z m200 0 c0
-30 -4 -55 -10 -55 -5 0 -10 25 -10 55 0 30 5 55 10 55 6 0 10 -25 10 -55z
m252 14 l23 -42 6 44 c6 44 6 43 7 -13 1 -32 -1 -58 -5 -58 -5 0 -19 19 -33
43 l-25 42 -6 -45 -6 -45 -1 58 c-1 31 2 57 7 57 6 0 20 -19 33 -41z m163 -10
c9 -28 14 -53 11 -56 -3 -3 -8 2 -12 11 -8 20 -54 22 -54 1 0 -8 -5 -15 -11
-15 -11 0 -7 19 17 77 8 18 18 33 23 33 5 0 17 -23 26 -51z m139 34 c4 -9 0
-23 -8 -31 -13 -13 -13 -18 1 -38 10 -16 11 -24 4 -24 -6 0 -17 11 -23 25 -6
14 -15 25 -20 25 -4 0 -8 -11 -8 -25 0 -14 -4 -25 -10 -25 -5 0 -10 25 -10 55
l0 55 34 0 c22 0 36 -6 40 -17z m76 -38 c0 -30 -4 -55 -10 -55 -5 0 -10 25
-10 55 0 30 5 55 10 55 6 0 10 -25 10 -55z m98 48 c-32 -5 -38 -33 -8 -33 11
0 20 -4 20 -10 0 -5 -9 -10 -21 -10 -32 0 -19 -34 16 -41 29 -6 29 -7 -7 -8
l-38 -1 0 55 0 55 33 -1 c30 -2 30 -2 5 -6z m1370 -200 c-3 -17 -99 -18 -1826
-21 -1817 -2 -1822 -2 -1822 18 0 20 6 20 1826 20 1733 0 1825 -1 1822 -17z
m-3568 -113 c12 -8 9 -10 -12 -10 -35 0 -37 -23 -2 -38 18 -9 24 -19 22 -35
-3 -24 -43 -36 -61 -18 -7 7 -2 10 18 8 36 -3 44 20 11 33 -35 13 -44 39 -21
56 22 16 25 17 45 4z m104 4 c25 -10 19 -20 -11 -19 -26 0 -28 -3 -28 -40 0
-38 2 -40 28 -38 15 1 25 -2 22 -8 -4 -5 -17 -9 -30 -9 -46 0 -62 77 -23 104
26 19 22 18 42 10z m240 -10 c19 -18 21 -75 4 -92 -7 -7 -21 -12 -33 -12 -30
0 -45 19 -45 56 0 34 21 64 45 64 7 0 21 -7 29 -16z m116 6 c45 -24 26 -110
-25 -110 -46 0 -62 77 -23 104 26 19 24 19 48 6z m260 0 c45 -24 26 -110 -25
-110 -46 0 -62 77 -23 104 26 19 24 19 48 6z m474 4 c25 -9 19 -20 -10 -19
-36 0 -51 -26 -36 -59 6 -14 19 -26 27 -26 21 0 31 30 14 41 -11 7 -11 9 4 9
12 0 17 -8 17 -30 0 -26 -4 -30 -28 -30 -37 0 -52 17 -52 56 0 23 7 38 22 48
26 19 22 18 42 10z m770 0 c25 -9 19 -20 -10 -19 -36 0 -51 -26 -36 -59 6 -14
19 -26 27 -26 21 0 31 30 14 41 -11 7 -11 9 4 9 12 0 17 -8 17 -30 0 -26 -4
-30 -28 -30 -37 0 -52 17 -52 56 0 23 7 38 22 48 26 19 22 18 42 10z m730 0
c25 -10 19 -22 -9 -17 -20 4 -25 0 -31 -22 -9 -37 7 -60 40 -58 15 1 24 -2 21
-8 -12 -18 -54 -9 -70 15 -18 28 -11 71 14 86 20 12 16 11 35 4z m364 -10 c25
-17 31 -71 10 -92 -20 -20 -56 -14 -73 12 -18 28 -11 71 14 86 21 13 23 12 49
-6z m212 6 c45 -24 26 -110 -25 -110 -46 0 -62 77 -23 104 26 19 24 19 48 6z
m114 4 c25 -10 19 -20 -11 -19 -23 0 -29 -5 -31 -28 -4 -31 12 -57 34 -57 17
0 18 37 2 43 -7 3 -3 6 10 6 20 1 23 -3 20 -26 -2 -22 -9 -29 -29 -31 -53 -6
-79 58 -39 98 22 22 22 22 44 14z m-3214 -24 c0 -30 47 -28 53 3 2 12 4 -5 4
-38 0 -33 -2 -48 -4 -32 -3 21 -10 27 -29 27 -19 0 -24 -5 -24 -25 0 -14 -4
-25 -10 -25 -5 0 -10 25 -10 55 0 30 5 55 10 55 6 0 10 -9 10 -20z m390 -81
c23 -6 22 -7 -7 -8 l-33 -1 2 58 1 57 6 -50 c5 -42 10 -50 31 -56z m257 94
c-35 -5 -33 -34 3 -44 l25 -7 -27 -1 c-21 -1 -28 -7 -31 -28 -2 -16 -5 -2 -6
30 l-1 57 33 -1 c31 -2 31 -2 4 -6z m141 0 c-32 -5 -38 -33 -8 -33 11 0 20 -4
20 -10 0 -5 -9 -10 -20 -10 -33 0 -26 -38 8 -43 22 -3 20 -4 -10 -6 l-38 -1 0
55 0 55 38 -1 c30 -2 32 -3 10 -6z m99 -38 l22 -39 4 45 c3 40 4 39 5 -14 2
-65 -7 -67 -38 -9 l-19 37 -1 -42 c0 -24 -4 -43 -10 -43 -5 0 -10 25 -10 56 0
65 13 68 47 9z m200 -37 c-2 -18 -4 -6 -4 27 0 33 2 48 4 33 2 -15 2 -42 0
-60z m90 37 l22 -39 4 45 c3 40 4 39 5 -14 2 -65 -7 -67 -38 -9 l-19 37 -1
-42 c0 -24 -4 -43 -10 -43 -5 0 -10 25 -10 56 0 65 13 68 47 9z m121 38 c-32
-5 -38 -33 -8 -33 11 0 20 -4 20 -10 0 -5 -9 -10 -20 -10 -33 0 -26 -38 8 -43
22 -3 20 -4 -10 -6 l-38 -1 0 55 0 55 38 -1 c30 -2 32 -3 10 -6z m100 0 c-32
-5 -38 -33 -8 -33 11 0 20 -4 20 -10 0 -5 -9 -10 -20 -10 -33 0 -26 -38 8 -43
22 -3 20 -4 -10 -6 l-38 -1 0 55 0 55 38 -1 c30 -2 32 -3 10 -6z m128 -7 c3
-8 1 -24 -6 -35 -8 -15 -8 -27 0 -41 6 -11 7 -20 2 -20 -5 0 -15 11 -22 25 -7
14 -17 25 -22 25 -4 0 -8 -11 -8 -25 0 -14 -4 -25 -10 -25 -5 0 -10 25 -10 55
l0 55 35 0 c22 0 38 -6 41 -14z m41 -68 c-2 -18 -4 -6 -4 27 0 33 2 48 4 33 2
-15 2 -42 0 -60z m90 37 l22 -39 4 45 c3 40 4 39 5 -14 2 -65 -7 -67 -38 -9
l-19 37 -1 -42 c0 -24 -4 -43 -10 -43 -5 0 -10 25 -10 56 0 65 13 68 47 9z
m294 -13 c10 -29 14 -52 9 -52 -4 0 -10 7 -14 15 -7 20 -42 19 -50 -1 -4 -9
-9 -14 -12 -11 -10 9 27 108 39 104 6 -2 18 -27 28 -55z m86 13 l22 -39 4 45
c3 40 4 39 5 -14 2 -65 -7 -67 -38 -9 l-19 37 -1 -42 c0 -24 -4 -43 -10 -43
-5 0 -10 25 -10 56 0 65 13 68 47 9z m142 36 c18 -11 19 -65 1 -85 -7 -9 -25
-16 -41 -16 -28 0 -29 1 -29 55 0 53 1 55 28 55 15 0 33 -4 41 -9z m149 2
c-14 -3 -18 -15 -18 -54 0 -27 -4 -49 -10 -49 -5 0 -10 22 -10 49 0 39 -4 51
-17 54 -10 3 2 5 27 5 25 0 37 -2 28 -5z m90 0 c-32 -5 -38 -33 -8 -33 11 0
20 -4 20 -10 0 -5 -9 -10 -20 -10 -33 0 -26 -38 8 -43 22 -3 20 -4 -10 -6
l-38 -1 0 55 0 55 38 -1 c30 -2 32 -3 10 -6z m198 -33 c17 0 24 5 24 20 0 11
5 20 10 20 6 0 10 -25 10 -55 0 -30 -4 -55 -10 -55 -5 0 -10 11 -10 25 0 20
-5 25 -24 25 -19 0 -26 -6 -29 -27 -2 -16 -4 -1 -4 32 0 33 2 50 4 38 3 -16
11 -23 29 -23z m123 0 c12 -22 23 -40 24 -40 2 0 1 18 -1 40 -3 25 0 40 7 40
7 0 11 -22 11 -55 0 -30 -4 -55 -10 -55 -5 0 -20 19 -32 43 l-23 42 -6 -45 -6
-45 -1 58 c-1 31 2 57 6 57 5 0 18 -18 31 -40z m221 -9 c0 -46 2 -50 28 -54
22 -3 20 -4 -10 -6 l-38 -1 0 55 c0 30 5 55 10 55 6 0 10 -22 10 -49z m325 29
c3 -11 10 -20 15 -20 5 0 12 9 15 20 3 11 11 20 16 20 5 0 3 -13 -6 -30 -8
-16 -15 -40 -15 -55 0 -14 -4 -25 -10 -25 -5 0 -10 11 -10 25 0 15 -7 39 -15
55 -9 17 -11 30 -6 30 5 0 13 -9 16 -20z"/>
<path d="M980 3140 c0 -5 5 -10 10 -10 6 0 10 5 10 10 0 6 -4 10 -10 10 -5 0
-10 -4 -10 -10z"/>
<path d="M1155 2941 c-6 -11 9 -23 19 -14 9 9 7 23 -3 23 -6 0 -12 -4 -16 -9z"/>
<path d="M705 3060 c-7 -12 2 -30 16 -30 5 0 9 9 9 20 0 21 -15 27 -25 10z"/>
<path d="M776 2741 c-4 -5 -2 -12 3 -15 5 -4 12 -2 15 3 4 5 2 12 -3 15 -5 4
-12 2 -15 -3z"/>
<path d="M1602 3056 c1 -10 8 -17 13 -17 15 1 12 24 -3 29 -9 3 -13 -2 -10
-12z"/>
<path d="M1536 2741 c-4 -5 -2 -12 3 -15 5 -4 12 -2 15 3 4 5 2 12 -3 15 -5 4
-12 2 -15 -3z"/>
<path d="M870 3005 c0 -9 5 -15 11 -13 6 2 11 8 11 13 0 5 -5 11 -11 13 -6 2
-11 -4 -11 -13z"/>
<path d="M1437 3014 c-8 -8 1 -24 14 -24 5 0 9 7 9 15 0 15 -12 20 -23 9z"/>
<path d="M982 2708 c6 -18 28 -21 28 -4 0 9 -7 16 -16 16 -9 0 -14 -5 -12 -12z"/>
<path d="M1322 2709 c2 -6 8 -10 13 -10 5 0 11 4 13 10 2 6 -4 11 -13 11 -9 0
-15 -5 -13 -11z"/>
<path d="M2210 2154 c-19 -21 -1 -69 25 -69 26 0 44 48 25 69 -7 9 -18 16 -25
16 -7 0 -18 -7 -25 -16z"/>
<path d="M2507 2141 c-3 -14 0 -21 9 -21 16 0 18 9 5 28 -6 10 -10 9 -14 -7z"/>
<path d="M2630 2149 c0 -25 33 -22 38 4 2 12 -3 17 -17 17 -15 0 -21 -6 -21
-21z"/>
<path d="M950 1834 c-19 -21 -1 -69 25 -69 26 0 44 48 25 69 -7 9 -18 16 -25
16 -7 0 -18 -7 -25 -16z"/>
<path d="M1074 1836 c-11 -30 0 -71 20 -71 26 0 40 26 32 58 -7 29 -42 38 -52
13z"/>
<path d="M1334 1836 c-11 -30 0 -71 20 -71 26 0 40 26 32 58 -7 29 -42 38 -52
13z"/>
<path d="M3664 1824 c-8 -33 6 -59 32 -59 15 0 19 7 19 40 0 34 -4 40 -22 43
-17 3 -24 -3 -29 -24z"/>
<path d="M3884 1836 c-11 -30 0 -71 20 -71 26 0 40 26 32 58 -7 29 -42 38 -52
13z"/>
<path d="M2300 1829 c0 -25 33 -22 38 4 2 12 -3 17 -17 17 -15 0 -21 -6 -21
-21z"/>
<path d="M2745 1827 c-8 -19 -2 -31 13 -26 5 2 6 13 2 24 -7 19 -8 19 -15 2z"/>
<path d="M2960 1805 c0 -46 13 -58 38 -33 25 25 8 78 -25 78 -9 0 -13 -15 -13
-45z"/>
</g>
</svg>
