<?xml version="1.0" standalone="no"?>
<!DOCTYPE svg PUBLIC "-//W3C//DTD SVG 20010904//EN"
 "http://www.w3.org/TR/2001/REC-SVG-20010904/DTD/svg10.dtd">
<svg version="1.0" xmlns="http://www.w3.org/2000/svg"
 width="500.000000pt" height="500.000000pt" viewBox="0 0 500.000000 500.000000"
 preserveAspectRatio="xMidYMid meet">

<g transform="translate(0.000000,500.000000) scale(0.100000,-0.100000)"
fill="#000000" stroke="none">
<path d="M1157 2421 c-11 -295 -10 -381 8 -381 13 0 15 30 14 218 -2 318 -12
397 -22 163z"/>
<path d="M1035 2550 l39 -40 -47 0 c-39 0 -49 4 -63 25 -12 19 -25 25 -50 25
-19 0 -43 6 -54 12 -23 15 -46 -1 -37 -26 7 -18 42 -22 52 -6 14 22 60 10 80
-20 18 -27 25 -30 78 -30 l57 0 -2 -212 -3 -213 -157 -3 c-215 -4 -209 -22 7
-22 l165 0 0 233 c0 221 -1 235 -20 252 -11 10 -20 29 -20 42 0 12 -4 23 -10
23 -5 0 -10 -5 -10 -12 0 -9 -3 -9 -12 0 -7 7 -17 12 -22 12 -6 0 8 -18 29
-40z m-170 11 c7 -12 -12 -24 -25 -16 -11 7 -4 25 10 25 5 0 11 -4 15 -9z"/>
<path d="M1277 2583 c-4 -3 -7 -14 -7 -23 0 -9 -9 -25 -20 -35 -19 -17 -20
-31 -20 -252 l0 -233 165 0 c216 0 222 18 8 22 l-158 3 -3 213 -2 212 57 0
c53 0 60 3 78 30 21 32 52 39 84 18 24 -15 53 -3 49 19 -3 19 -48 32 -48 14 0
-6 -17 -11 -39 -11 -30 0 -42 -5 -55 -25 -14 -21 -24 -25 -63 -25 l-47 0 39
40 c21 22 34 40 28 40 -7 0 -15 -5 -19 -11 -5 -8 -8 -8 -13 0 -4 6 -10 8 -14
4z m218 -24 c10 -15 -1 -23 -20 -15 -9 3 -13 10 -10 16 8 13 22 13 30 -1z"/>
</g>
</svg>
